<mxfile host="app.diagrams.net" agent="Mozilla/5.0 (Macintosh; Intel Mac OS X 10_15_7) AppleWebKit/537.36 (KHTML, like Gecko) Chrome/131.0.0.0 Safari/537.36 Edg/131.0.0.0" version="25.0.3">
  <diagram id="C5RBs43oDa-KdzZeNtuy" name="Page-1">
    <mxGraphModel dx="1852" dy="1931" grid="1" gridSize="10" guides="1" tooltips="1" connect="1" arrows="1" fold="1" page="1" pageScale="1" pageWidth="827" pageHeight="1169" math="0" shadow="0">
      <root>
        <mxCell id="WIyWlLk6GJQsqaUBKTNV-0" />
        <mxCell id="WIyWlLk6GJQsqaUBKTNV-1" parent="WIyWlLk6GJQsqaUBKTNV-0" />
        <mxCell id="dILwrSbfBUNmTe5oF6Nl-61" style="edgeStyle=orthogonalEdgeStyle;rounded=0;orthogonalLoop=1;jettySize=auto;html=1;entryX=0.5;entryY=0;entryDx=0;entryDy=0;" edge="1" parent="WIyWlLk6GJQsqaUBKTNV-1" source="WIyWlLk6GJQsqaUBKTNV-3" target="dILwrSbfBUNmTe5oF6Nl-4">
          <mxGeometry relative="1" as="geometry">
            <Array as="points">
              <mxPoint x="225" y="260" />
              <mxPoint y="260" />
            </Array>
          </mxGeometry>
        </mxCell>
        <mxCell id="WIyWlLk6GJQsqaUBKTNV-3" value="Sắp xếp các điểm theo hành độ, tung độ ở mảng A" style="rounded=1;whiteSpace=wrap;html=1;fontSize=12;glass=0;strokeWidth=1;shadow=0;" parent="WIyWlLk6GJQsqaUBKTNV-1" vertex="1">
          <mxGeometry x="140" y="180" width="170" height="50" as="geometry" />
        </mxCell>
        <mxCell id="dILwrSbfBUNmTe5oF6Nl-0" value="Bắt đầu" style="ellipse;whiteSpace=wrap;html=1;" vertex="1" parent="WIyWlLk6GJQsqaUBKTNV-1">
          <mxGeometry x="170" y="-20" width="110" height="50" as="geometry" />
        </mxCell>
        <mxCell id="dILwrSbfBUNmTe5oF6Nl-1" value="Nhập mảng A các điểm" style="shape=parallelogram;perimeter=parallelogramPerimeter;whiteSpace=wrap;html=1;fixedSize=1;" vertex="1" parent="WIyWlLk6GJQsqaUBKTNV-1">
          <mxGeometry x="160" y="70" width="120" height="60" as="geometry" />
        </mxCell>
        <mxCell id="dILwrSbfBUNmTe5oF6Nl-8" style="edgeStyle=orthogonalEdgeStyle;rounded=0;orthogonalLoop=1;jettySize=auto;html=1;entryX=0.5;entryY=0;entryDx=0;entryDy=0;" edge="1" parent="WIyWlLk6GJQsqaUBKTNV-1" source="dILwrSbfBUNmTe5oF6Nl-3" target="dILwrSbfBUNmTe5oF6Nl-5">
          <mxGeometry relative="1" as="geometry" />
        </mxCell>
        <mxCell id="dILwrSbfBUNmTe5oF6Nl-68" style="edgeStyle=orthogonalEdgeStyle;rounded=0;orthogonalLoop=1;jettySize=auto;html=1;entryX=1;entryY=0.5;entryDx=0;entryDy=0;" edge="1" parent="WIyWlLk6GJQsqaUBKTNV-1" source="dILwrSbfBUNmTe5oF6Nl-3" target="dILwrSbfBUNmTe5oF6Nl-67">
          <mxGeometry relative="1" as="geometry">
            <Array as="points">
              <mxPoint x="160" y="460" />
              <mxPoint x="160" y="920" />
            </Array>
          </mxGeometry>
        </mxCell>
        <mxCell id="dILwrSbfBUNmTe5oF6Nl-3" value="for i in range(len(A))" style="rhombus;whiteSpace=wrap;html=1;shadow=0;fontFamily=Helvetica;fontSize=12;align=center;strokeWidth=1;spacing=6;spacingTop=-4;" vertex="1" parent="WIyWlLk6GJQsqaUBKTNV-1">
          <mxGeometry x="-75" y="410" width="150" height="100" as="geometry" />
        </mxCell>
        <mxCell id="dILwrSbfBUNmTe5oF6Nl-14" style="edgeStyle=orthogonalEdgeStyle;rounded=0;orthogonalLoop=1;jettySize=auto;html=1;entryX=0.5;entryY=0;entryDx=0;entryDy=0;" edge="1" parent="WIyWlLk6GJQsqaUBKTNV-1" source="dILwrSbfBUNmTe5oF6Nl-4" target="dILwrSbfBUNmTe5oF6Nl-3">
          <mxGeometry relative="1" as="geometry" />
        </mxCell>
        <mxCell id="dILwrSbfBUNmTe5oF6Nl-4" value="tạo lower[]" style="rounded=1;whiteSpace=wrap;html=1;fontSize=12;glass=0;strokeWidth=1;shadow=0;" vertex="1" parent="WIyWlLk6GJQsqaUBKTNV-1">
          <mxGeometry x="-60" y="310" width="120" height="40" as="geometry" />
        </mxCell>
        <mxCell id="dILwrSbfBUNmTe5oF6Nl-9" style="edgeStyle=orthogonalEdgeStyle;rounded=0;orthogonalLoop=1;jettySize=auto;html=1;entryX=0.5;entryY=0;entryDx=0;entryDy=0;" edge="1" parent="WIyWlLk6GJQsqaUBKTNV-1" source="dILwrSbfBUNmTe5oF6Nl-5" target="dILwrSbfBUNmTe5oF6Nl-6">
          <mxGeometry relative="1" as="geometry" />
        </mxCell>
        <mxCell id="dILwrSbfBUNmTe5oF6Nl-11" style="edgeStyle=orthogonalEdgeStyle;rounded=0;orthogonalLoop=1;jettySize=auto;html=1;" edge="1" parent="WIyWlLk6GJQsqaUBKTNV-1" source="dILwrSbfBUNmTe5oF6Nl-5" target="dILwrSbfBUNmTe5oF6Nl-7">
          <mxGeometry relative="1" as="geometry">
            <Array as="points">
              <mxPoint x="130" y="615" />
              <mxPoint x="130" y="800" />
              <mxPoint y="800" />
            </Array>
          </mxGeometry>
        </mxCell>
        <mxCell id="dILwrSbfBUNmTe5oF6Nl-5" value="len(lower) &amp;gt;= 2 và 2 điểm&amp;nbsp;&lt;div&gt;cuối và A[i]&amp;nbsp; không duy trì tính chất lồi&lt;/div&gt;" style="rhombus;whiteSpace=wrap;html=1;shadow=0;fontFamily=Helvetica;fontSize=12;align=center;strokeWidth=1;spacing=6;spacingTop=-4;" vertex="1" parent="WIyWlLk6GJQsqaUBKTNV-1">
          <mxGeometry x="-95" y="550" width="190" height="130" as="geometry" />
        </mxCell>
        <mxCell id="dILwrSbfBUNmTe5oF6Nl-15" style="edgeStyle=orthogonalEdgeStyle;rounded=0;orthogonalLoop=1;jettySize=auto;html=1;entryX=0;entryY=0.5;entryDx=0;entryDy=0;" edge="1" parent="WIyWlLk6GJQsqaUBKTNV-1" source="dILwrSbfBUNmTe5oF6Nl-6" target="dILwrSbfBUNmTe5oF6Nl-5">
          <mxGeometry relative="1" as="geometry">
            <Array as="points">
              <mxPoint x="-130" y="740" />
              <mxPoint x="-130" y="615" />
            </Array>
          </mxGeometry>
        </mxCell>
        <mxCell id="dILwrSbfBUNmTe5oF6Nl-6" value="loại bỏ điểm cuối trong lower" style="rounded=1;whiteSpace=wrap;html=1;fontSize=12;glass=0;strokeWidth=1;shadow=0;" vertex="1" parent="WIyWlLk6GJQsqaUBKTNV-1">
          <mxGeometry x="-60" y="720" width="120" height="40" as="geometry" />
        </mxCell>
        <mxCell id="dILwrSbfBUNmTe5oF6Nl-13" style="edgeStyle=orthogonalEdgeStyle;rounded=0;orthogonalLoop=1;jettySize=auto;html=1;entryX=0;entryY=0.5;entryDx=0;entryDy=0;" edge="1" parent="WIyWlLk6GJQsqaUBKTNV-1" source="dILwrSbfBUNmTe5oF6Nl-7" target="dILwrSbfBUNmTe5oF6Nl-3">
          <mxGeometry relative="1" as="geometry">
            <mxPoint y="390" as="targetPoint" />
            <Array as="points">
              <mxPoint x="-170" y="840" />
              <mxPoint x="-170" y="460" />
            </Array>
          </mxGeometry>
        </mxCell>
        <mxCell id="dILwrSbfBUNmTe5oF6Nl-7" value="thêm A[i] vào lower" style="rounded=1;whiteSpace=wrap;html=1;fontSize=12;glass=0;strokeWidth=1;shadow=0;" vertex="1" parent="WIyWlLk6GJQsqaUBKTNV-1">
          <mxGeometry x="-60" y="820" width="120" height="40" as="geometry" />
        </mxCell>
        <mxCell id="dILwrSbfBUNmTe5oF6Nl-21" style="edgeStyle=orthogonalEdgeStyle;rounded=0;orthogonalLoop=1;jettySize=auto;html=1;" edge="1" target="dILwrSbfBUNmTe5oF6Nl-26" parent="WIyWlLk6GJQsqaUBKTNV-1">
          <mxGeometry relative="1" as="geometry">
            <mxPoint x="585" y="625" as="sourcePoint" />
            <Array as="points">
              <mxPoint x="610" y="625" />
              <mxPoint x="610" y="850" />
            </Array>
          </mxGeometry>
        </mxCell>
        <mxCell id="dILwrSbfBUNmTe5oF6Nl-49" style="edgeStyle=orthogonalEdgeStyle;rounded=0;orthogonalLoop=1;jettySize=auto;html=1;entryX=0.5;entryY=0;entryDx=0;entryDy=0;" edge="1" source="dILwrSbfBUNmTe5oF6Nl-50" target="dILwrSbfBUNmTe5oF6Nl-55" parent="WIyWlLk6GJQsqaUBKTNV-1">
          <mxGeometry relative="1" as="geometry" />
        </mxCell>
        <mxCell id="dILwrSbfBUNmTe5oF6Nl-70" style="edgeStyle=orthogonalEdgeStyle;rounded=0;orthogonalLoop=1;jettySize=auto;html=1;entryX=1;entryY=0.75;entryDx=0;entryDy=0;" edge="1" parent="WIyWlLk6GJQsqaUBKTNV-1" source="dILwrSbfBUNmTe5oF6Nl-50" target="dILwrSbfBUNmTe5oF6Nl-64">
          <mxGeometry relative="1" as="geometry">
            <Array as="points">
              <mxPoint x="570" y="560" />
              <mxPoint x="570" y="1030" />
            </Array>
          </mxGeometry>
        </mxCell>
        <mxCell id="dILwrSbfBUNmTe5oF6Nl-50" value="for i in range(len(A))" style="rhombus;whiteSpace=wrap;html=1;shadow=0;fontFamily=Helvetica;fontSize=12;align=center;strokeWidth=1;spacing=6;spacingTop=-4;" vertex="1" parent="WIyWlLk6GJQsqaUBKTNV-1">
          <mxGeometry x="335" y="510" width="150" height="100" as="geometry" />
        </mxCell>
        <mxCell id="dILwrSbfBUNmTe5oF6Nl-51" style="edgeStyle=orthogonalEdgeStyle;rounded=0;orthogonalLoop=1;jettySize=auto;html=1;entryX=0.5;entryY=0;entryDx=0;entryDy=0;" edge="1" source="dILwrSbfBUNmTe5oF6Nl-52" target="dILwrSbfBUNmTe5oF6Nl-50" parent="WIyWlLk6GJQsqaUBKTNV-1">
          <mxGeometry relative="1" as="geometry" />
        </mxCell>
        <mxCell id="dILwrSbfBUNmTe5oF6Nl-52" value="tạo upper[]" style="rounded=1;whiteSpace=wrap;html=1;fontSize=12;glass=0;strokeWidth=1;shadow=0;" vertex="1" parent="WIyWlLk6GJQsqaUBKTNV-1">
          <mxGeometry x="350" y="410" width="120" height="40" as="geometry" />
        </mxCell>
        <mxCell id="dILwrSbfBUNmTe5oF6Nl-53" style="edgeStyle=orthogonalEdgeStyle;rounded=0;orthogonalLoop=1;jettySize=auto;html=1;entryX=0.5;entryY=0;entryDx=0;entryDy=0;" edge="1" source="dILwrSbfBUNmTe5oF6Nl-55" target="dILwrSbfBUNmTe5oF6Nl-57" parent="WIyWlLk6GJQsqaUBKTNV-1">
          <mxGeometry relative="1" as="geometry" />
        </mxCell>
        <mxCell id="dILwrSbfBUNmTe5oF6Nl-54" style="edgeStyle=orthogonalEdgeStyle;rounded=0;orthogonalLoop=1;jettySize=auto;html=1;" edge="1" source="dILwrSbfBUNmTe5oF6Nl-55" target="dILwrSbfBUNmTe5oF6Nl-59" parent="WIyWlLk6GJQsqaUBKTNV-1">
          <mxGeometry relative="1" as="geometry">
            <Array as="points">
              <mxPoint x="540" y="715" />
              <mxPoint x="540" y="900" />
              <mxPoint x="410" y="900" />
            </Array>
          </mxGeometry>
        </mxCell>
        <mxCell id="dILwrSbfBUNmTe5oF6Nl-55" value="len(upper) &amp;gt;= 2 và 2 điểm&amp;nbsp;&lt;div&gt;cuối và a_reverse[i]&amp;nbsp; không duy trì tính chất lồi&lt;/div&gt;" style="rhombus;whiteSpace=wrap;html=1;shadow=0;fontFamily=Helvetica;fontSize=12;align=center;strokeWidth=1;spacing=6;spacingTop=-4;" vertex="1" parent="WIyWlLk6GJQsqaUBKTNV-1">
          <mxGeometry x="315" y="650" width="190" height="130" as="geometry" />
        </mxCell>
        <mxCell id="dILwrSbfBUNmTe5oF6Nl-56" style="edgeStyle=orthogonalEdgeStyle;rounded=0;orthogonalLoop=1;jettySize=auto;html=1;entryX=0;entryY=0.5;entryDx=0;entryDy=0;" edge="1" source="dILwrSbfBUNmTe5oF6Nl-57" target="dILwrSbfBUNmTe5oF6Nl-55" parent="WIyWlLk6GJQsqaUBKTNV-1">
          <mxGeometry relative="1" as="geometry">
            <Array as="points">
              <mxPoint x="280" y="840" />
              <mxPoint x="280" y="715" />
            </Array>
          </mxGeometry>
        </mxCell>
        <mxCell id="dILwrSbfBUNmTe5oF6Nl-57" value="loại bỏ điểm cuối trong upper" style="rounded=1;whiteSpace=wrap;html=1;fontSize=12;glass=0;strokeWidth=1;shadow=0;" vertex="1" parent="WIyWlLk6GJQsqaUBKTNV-1">
          <mxGeometry x="350" y="820" width="120" height="40" as="geometry" />
        </mxCell>
        <mxCell id="dILwrSbfBUNmTe5oF6Nl-58" style="edgeStyle=orthogonalEdgeStyle;rounded=0;orthogonalLoop=1;jettySize=auto;html=1;entryX=0;entryY=0.5;entryDx=0;entryDy=0;" edge="1" source="dILwrSbfBUNmTe5oF6Nl-59" target="dILwrSbfBUNmTe5oF6Nl-50" parent="WIyWlLk6GJQsqaUBKTNV-1">
          <mxGeometry relative="1" as="geometry">
            <mxPoint x="410" y="490" as="targetPoint" />
            <Array as="points">
              <mxPoint x="240" y="940" />
              <mxPoint x="240" y="560" />
            </Array>
          </mxGeometry>
        </mxCell>
        <mxCell id="dILwrSbfBUNmTe5oF6Nl-59" value="thêm a_reverse[i] vào upper" style="rounded=1;whiteSpace=wrap;html=1;fontSize=12;glass=0;strokeWidth=1;shadow=0;" vertex="1" parent="WIyWlLk6GJQsqaUBKTNV-1">
          <mxGeometry x="350" y="920" width="120" height="40" as="geometry" />
        </mxCell>
        <mxCell id="dILwrSbfBUNmTe5oF6Nl-88" style="edgeStyle=orthogonalEdgeStyle;rounded=0;orthogonalLoop=1;jettySize=auto;html=1;entryX=0.5;entryY=0;entryDx=0;entryDy=0;" edge="1" parent="WIyWlLk6GJQsqaUBKTNV-1" source="dILwrSbfBUNmTe5oF6Nl-60" target="dILwrSbfBUNmTe5oF6Nl-52">
          <mxGeometry relative="1" as="geometry" />
        </mxCell>
        <mxCell id="dILwrSbfBUNmTe5oF6Nl-60" value="tạo a_reverse = reversed(A)" style="rounded=1;whiteSpace=wrap;html=1;fontSize=12;glass=0;strokeWidth=1;shadow=0;" vertex="1" parent="WIyWlLk6GJQsqaUBKTNV-1">
          <mxGeometry x="350" y="310" width="120" height="40" as="geometry" />
        </mxCell>
        <mxCell id="dILwrSbfBUNmTe5oF6Nl-62" style="edgeStyle=orthogonalEdgeStyle;rounded=0;orthogonalLoop=1;jettySize=auto;html=1;entryX=0.558;entryY=0.025;entryDx=0;entryDy=0;entryPerimeter=0;" edge="1" parent="WIyWlLk6GJQsqaUBKTNV-1" source="WIyWlLk6GJQsqaUBKTNV-3" target="dILwrSbfBUNmTe5oF6Nl-60">
          <mxGeometry relative="1" as="geometry">
            <Array as="points">
              <mxPoint x="225" y="260" />
              <mxPoint x="417" y="260" />
            </Array>
          </mxGeometry>
        </mxCell>
        <mxCell id="dILwrSbfBUNmTe5oF6Nl-64" value="loại bỏ điểm cuối của upper" style="rounded=1;whiteSpace=wrap;html=1;fontSize=12;glass=0;strokeWidth=1;shadow=0;" vertex="1" parent="WIyWlLk6GJQsqaUBKTNV-1">
          <mxGeometry x="354" y="1000" width="120" height="40" as="geometry" />
        </mxCell>
        <mxCell id="dILwrSbfBUNmTe5oF6Nl-72" style="edgeStyle=orthogonalEdgeStyle;rounded=0;orthogonalLoop=1;jettySize=auto;html=1;" edge="1" parent="WIyWlLk6GJQsqaUBKTNV-1" source="dILwrSbfBUNmTe5oF6Nl-67" target="dILwrSbfBUNmTe5oF6Nl-71">
          <mxGeometry relative="1" as="geometry">
            <Array as="points">
              <mxPoint y="1000" />
              <mxPoint x="200" y="1000" />
            </Array>
          </mxGeometry>
        </mxCell>
        <mxCell id="dILwrSbfBUNmTe5oF6Nl-67" value="Loại bỏ điểm cuối của lower" style="rounded=1;whiteSpace=wrap;html=1;fontSize=12;glass=0;strokeWidth=1;shadow=0;" vertex="1" parent="WIyWlLk6GJQsqaUBKTNV-1">
          <mxGeometry x="-60" y="900" width="120" height="40" as="geometry" />
        </mxCell>
        <mxCell id="dILwrSbfBUNmTe5oF6Nl-76" style="edgeStyle=orthogonalEdgeStyle;rounded=0;orthogonalLoop=1;jettySize=auto;html=1;entryX=0.5;entryY=0;entryDx=0;entryDy=0;" edge="1" parent="WIyWlLk6GJQsqaUBKTNV-1" source="dILwrSbfBUNmTe5oF6Nl-71" target="dILwrSbfBUNmTe5oF6Nl-74">
          <mxGeometry relative="1" as="geometry" />
        </mxCell>
        <mxCell id="dILwrSbfBUNmTe5oF6Nl-71" value="result = lower + upper" style="rounded=1;whiteSpace=wrap;html=1;fontSize=12;glass=0;strokeWidth=1;shadow=0;" vertex="1" parent="WIyWlLk6GJQsqaUBKTNV-1">
          <mxGeometry x="140" y="1090" width="120" height="40" as="geometry" />
        </mxCell>
        <mxCell id="dILwrSbfBUNmTe5oF6Nl-73" style="edgeStyle=orthogonalEdgeStyle;rounded=0;orthogonalLoop=1;jettySize=auto;html=1;entryX=0.825;entryY=0.05;entryDx=0;entryDy=0;entryPerimeter=0;" edge="1" parent="WIyWlLk6GJQsqaUBKTNV-1" source="dILwrSbfBUNmTe5oF6Nl-64" target="dILwrSbfBUNmTe5oF6Nl-71">
          <mxGeometry relative="1" as="geometry" />
        </mxCell>
        <mxCell id="dILwrSbfBUNmTe5oF6Nl-77" style="edgeStyle=orthogonalEdgeStyle;rounded=0;orthogonalLoop=1;jettySize=auto;html=1;entryX=0.5;entryY=0;entryDx=0;entryDy=0;" edge="1" parent="WIyWlLk6GJQsqaUBKTNV-1" source="dILwrSbfBUNmTe5oF6Nl-74" target="dILwrSbfBUNmTe5oF6Nl-75">
          <mxGeometry relative="1" as="geometry" />
        </mxCell>
        <mxCell id="dILwrSbfBUNmTe5oF6Nl-74" value="xuất result" style="shape=parallelogram;perimeter=parallelogramPerimeter;whiteSpace=wrap;html=1;fixedSize=1;" vertex="1" parent="WIyWlLk6GJQsqaUBKTNV-1">
          <mxGeometry x="140" y="1169" width="120" height="60" as="geometry" />
        </mxCell>
        <mxCell id="dILwrSbfBUNmTe5oF6Nl-75" value="kết thúc" style="ellipse;whiteSpace=wrap;html=1;" vertex="1" parent="WIyWlLk6GJQsqaUBKTNV-1">
          <mxGeometry x="145" y="1280" width="110" height="50" as="geometry" />
        </mxCell>
        <mxCell id="dILwrSbfBUNmTe5oF6Nl-78" style="edgeStyle=orthogonalEdgeStyle;rounded=0;orthogonalLoop=1;jettySize=auto;html=1;entryX=0.567;entryY=0;entryDx=0;entryDy=0;entryPerimeter=0;" edge="1" parent="WIyWlLk6GJQsqaUBKTNV-1" source="dILwrSbfBUNmTe5oF6Nl-0" target="dILwrSbfBUNmTe5oF6Nl-1">
          <mxGeometry relative="1" as="geometry" />
        </mxCell>
        <mxCell id="dILwrSbfBUNmTe5oF6Nl-79" style="edgeStyle=orthogonalEdgeStyle;rounded=0;orthogonalLoop=1;jettySize=auto;html=1;entryX=0.459;entryY=0.06;entryDx=0;entryDy=0;entryPerimeter=0;" edge="1" parent="WIyWlLk6GJQsqaUBKTNV-1" source="dILwrSbfBUNmTe5oF6Nl-1" target="WIyWlLk6GJQsqaUBKTNV-3">
          <mxGeometry relative="1" as="geometry" />
        </mxCell>
        <mxCell id="dILwrSbfBUNmTe5oF6Nl-80" value="đúng" style="text;html=1;align=center;verticalAlign=middle;whiteSpace=wrap;rounded=0;" vertex="1" parent="WIyWlLk6GJQsqaUBKTNV-1">
          <mxGeometry y="520" width="60" height="30" as="geometry" />
        </mxCell>
        <mxCell id="dILwrSbfBUNmTe5oF6Nl-81" value="sai" style="text;html=1;align=center;verticalAlign=middle;whiteSpace=wrap;rounded=0;" vertex="1" parent="WIyWlLk6GJQsqaUBKTNV-1">
          <mxGeometry x="80" y="430" width="60" height="30" as="geometry" />
        </mxCell>
        <mxCell id="dILwrSbfBUNmTe5oF6Nl-82" value="đúng" style="text;html=1;align=center;verticalAlign=middle;whiteSpace=wrap;rounded=0;" vertex="1" parent="WIyWlLk6GJQsqaUBKTNV-1">
          <mxGeometry y="680" width="60" height="30" as="geometry" />
        </mxCell>
        <mxCell id="dILwrSbfBUNmTe5oF6Nl-83" value="sai" style="text;html=1;align=center;verticalAlign=middle;whiteSpace=wrap;rounded=0;" vertex="1" parent="WIyWlLk6GJQsqaUBKTNV-1">
          <mxGeometry x="80" y="585" width="60" height="30" as="geometry" />
        </mxCell>
        <mxCell id="dILwrSbfBUNmTe5oF6Nl-84" value="sai" style="text;html=1;align=center;verticalAlign=middle;whiteSpace=wrap;rounded=0;" vertex="1" parent="WIyWlLk6GJQsqaUBKTNV-1">
          <mxGeometry x="490" y="530" width="60" height="30" as="geometry" />
        </mxCell>
        <mxCell id="dILwrSbfBUNmTe5oF6Nl-85" value="đúng" style="text;html=1;align=center;verticalAlign=middle;whiteSpace=wrap;rounded=0;" vertex="1" parent="WIyWlLk6GJQsqaUBKTNV-1">
          <mxGeometry x="414" y="610" width="60" height="30" as="geometry" />
        </mxCell>
        <mxCell id="dILwrSbfBUNmTe5oF6Nl-86" value="đúng" style="text;html=1;align=center;verticalAlign=middle;whiteSpace=wrap;rounded=0;" vertex="1" parent="WIyWlLk6GJQsqaUBKTNV-1">
          <mxGeometry x="414" y="780" width="60" height="30" as="geometry" />
        </mxCell>
        <mxCell id="dILwrSbfBUNmTe5oF6Nl-87" value="sai" style="text;html=1;align=center;verticalAlign=middle;whiteSpace=wrap;rounded=0;" vertex="1" parent="WIyWlLk6GJQsqaUBKTNV-1">
          <mxGeometry x="490" y="680" width="60" height="30" as="geometry" />
        </mxCell>
      </root>
    </mxGraphModel>
  </diagram>
</mxfile>
